<svg width="100" height="100" viewBox="0 0 100 100" fill="none" xmlns="http://www.w3.org/2000/svg">
<rect x="1.5" y="1.5" width="97" height="97" rx="8.5" fill="#DD4747" stroke="black" stroke-width="3"/>
<mask id="path-2-outside-1_2_4" maskUnits="userSpaceOnUse" x="27" y="20" width="45" height="58" fill="black">
<rect fill="white" x="27" y="20" width="45" height="58"/>
<path d="M30.7536 75V66.1506L49.3224 49.8935C50.7145 48.634 51.8994 47.4822 52.8771 46.4382C53.8549 45.3776 54.6006 44.317 55.1143 43.2564C55.6281 42.1792 55.8849 41.0109 55.8849 39.7514C55.8849 38.3428 55.5784 37.1413 54.9652 36.147C54.352 35.1361 53.5069 34.3572 52.4297 33.8104C51.3525 33.2635 50.1179 32.9901 48.7259 32.9901C47.3172 32.9901 46.0826 33.2801 45.022 33.8601C43.9614 34.4235 43.1328 35.2438 42.5362 36.321C41.9562 37.3982 41.6662 38.7074 41.6662 40.2486H30.0078C30.0078 36.785 30.7867 33.7938 32.3445 31.2749C33.9022 28.7559 36.0897 26.817 38.907 25.4581C41.7408 24.0826 45.0303 23.3949 48.7756 23.3949C52.6368 23.3949 55.9927 24.0412 58.843 25.3338C61.6934 26.6264 63.8975 28.4328 65.4553 30.7528C67.0296 33.0563 67.8168 35.7327 67.8168 38.782C67.8168 40.7209 67.4273 42.6432 66.6484 44.549C65.8696 46.4548 64.4692 48.5594 62.4474 50.8629C60.4422 53.1664 57.5919 55.9257 53.8963 59.1406L47.8061 64.7585V65.0817H68.4382V75H30.7536Z"/>
</mask>
<path d="M30.7536 75V66.1506L49.3224 49.8935C50.7145 48.634 51.8994 47.4822 52.8771 46.4382C53.8549 45.3776 54.6006 44.317 55.1143 43.2564C55.6281 42.1792 55.8849 41.0109 55.8849 39.7514C55.8849 38.3428 55.5784 37.1413 54.9652 36.147C54.352 35.1361 53.5069 34.3572 52.4297 33.8104C51.3525 33.2635 50.1179 32.9901 48.7259 32.9901C47.3172 32.9901 46.0826 33.2801 45.022 33.8601C43.9614 34.4235 43.1328 35.2438 42.5362 36.321C41.9562 37.3982 41.6662 38.7074 41.6662 40.2486H30.0078C30.0078 36.785 30.7867 33.7938 32.3445 31.2749C33.9022 28.7559 36.0897 26.817 38.907 25.4581C41.7408 24.0826 45.0303 23.3949 48.7756 23.3949C52.6368 23.3949 55.9927 24.0412 58.843 25.3338C61.6934 26.6264 63.8975 28.4328 65.4553 30.7528C67.0296 33.0563 67.8168 35.7327 67.8168 38.782C67.8168 40.7209 67.4273 42.6432 66.6484 44.549C65.8696 46.4548 64.4692 48.5594 62.4474 50.8629C60.4422 53.1664 57.5919 55.9257 53.8963 59.1406L47.8061 64.7585V65.0817H68.4382V75H30.7536Z" fill="white"/>
<path d="M30.7536 75H27.7536V78H30.7536V75ZM30.7536 66.1506L28.7774 63.8934L27.7536 64.7898V66.1506H30.7536ZM49.3224 49.8935L51.2986 52.1506L51.317 52.1345L51.3352 52.1181L49.3224 49.8935ZM52.8771 46.4382L55.0668 48.4889L55.0749 48.4803L55.0829 48.4716L52.8771 46.4382ZM55.1143 43.2564L57.8143 44.5642L57.8182 44.556L57.8222 44.5478L55.1143 43.2564ZM54.9652 36.147L52.4002 37.7029L52.4059 37.7123L52.4117 37.7217L54.9652 36.147ZM52.4297 33.8104L51.0716 36.4854L51.0716 36.4854L52.4297 33.8104ZM45.022 33.8601L46.4295 36.5094L46.4455 36.5009L46.4615 36.4922L45.022 33.8601ZM42.5362 36.321L39.9118 34.8675L39.9032 34.8831L39.8948 34.8987L42.5362 36.321ZM41.6662 40.2486V43.2486H44.6662V40.2486H41.6662ZM30.0078 40.2486H27.0078V43.2486H30.0078V40.2486ZM32.3445 31.2749L34.896 32.8528L34.896 32.8528L32.3445 31.2749ZM38.907 25.4581L40.2103 28.1602L40.2169 28.157L38.907 25.4581ZM58.843 25.3338L60.0821 22.6016L60.0821 22.6016L58.843 25.3338ZM65.4553 30.7528L62.9646 32.4251L62.9715 32.4354L62.9785 32.4456L65.4553 30.7528ZM66.6484 44.549L63.8714 43.414L63.8714 43.414L66.6484 44.549ZM62.4474 50.8629L60.1927 48.884L60.1847 48.8932L62.4474 50.8629ZM53.8963 59.1406L51.9273 56.8772L51.8943 56.9059L51.8622 56.9355L53.8963 59.1406ZM47.8061 64.7585L45.772 62.5534L44.8061 63.4444V64.7585H47.8061ZM47.8061 65.0817H44.8061V68.0817H47.8061V65.0817ZM68.4382 65.0817H71.4382V62.0817H68.4382V65.0817ZM68.4382 75V78H71.4382V75H68.4382ZM30.7536 75H33.7536V66.1506H30.7536H27.7536V75H30.7536ZM30.7536 66.1506L32.7297 68.4077L51.2986 52.1506L49.3224 49.8935L47.3463 47.6363L28.7774 63.8934L30.7536 66.1506ZM49.3224 49.8935L51.3352 52.1181C52.7709 50.8191 54.0183 49.6085 55.0668 48.4889L52.8771 46.4382L50.6874 44.3875C49.7805 45.3559 48.6581 46.4489 47.3097 47.6689L49.3224 49.8935ZM52.8771 46.4382L55.0829 48.4716C56.2171 47.2412 57.1474 45.9411 57.8143 44.5642L55.1143 43.2564L52.4144 41.9486C52.0539 42.6929 51.4926 43.514 50.6714 44.4048L52.8771 46.4382ZM55.1143 43.2564L57.8222 44.5478C58.5389 43.045 58.8849 41.4324 58.8849 39.7514H55.8849H52.8849C52.8849 40.5894 52.7173 41.3134 52.4065 41.965L55.1143 43.2564ZM55.8849 39.7514H58.8849C58.8849 37.9018 58.4788 36.1293 57.5187 34.5723L54.9652 36.147L52.4117 37.7217C52.6779 38.1534 52.8849 38.7838 52.8849 39.7514H55.8849ZM54.9652 36.147L57.5302 34.5912C56.6204 33.0911 55.3523 31.9297 53.7878 31.1354L52.4297 33.8104L51.0716 36.4854C51.6615 36.7848 52.0837 37.1811 52.4002 37.7029L54.9652 36.147ZM52.4297 33.8104L53.7878 31.1354C52.2299 30.3444 50.5177 29.9901 48.7259 29.9901V32.9901V35.9901C49.718 35.9901 50.4752 36.1826 51.0716 36.4854L52.4297 33.8104ZM48.7259 32.9901V29.9901C46.8978 29.9901 45.1525 30.3694 43.5826 31.228L45.022 33.8601L46.4615 36.4922C47.0127 36.1907 47.7367 35.9901 48.7259 35.9901V32.9901ZM45.022 33.8601L43.6146 31.2107C42.0276 32.0538 40.7823 33.296 39.9118 34.8675L42.5362 36.321L45.1606 37.7745C45.4834 37.1917 45.8953 36.7932 46.4295 36.5094L45.022 33.8601ZM42.5362 36.321L39.8948 34.8987C39.026 36.5122 38.6662 38.3373 38.6662 40.2486H41.6662H44.6662C44.6662 39.0775 44.8864 38.2842 45.1776 37.7433L42.5362 36.321ZM41.6662 40.2486V37.2486H30.0078V40.2486V43.2486H41.6662V40.2486ZM30.0078 40.2486H33.0078C33.0078 37.2466 33.678 34.8222 34.896 32.8528L32.3445 31.2749L29.793 29.697C27.8954 32.7654 27.0078 36.3235 27.0078 40.2486H30.0078ZM32.3445 31.2749L34.896 32.8528C36.136 30.8476 37.8774 29.2855 40.2103 28.1602L38.907 25.4581L37.6036 22.756C34.302 24.3485 31.6684 26.6643 29.7929 29.697L32.3445 31.2749ZM38.907 25.4581L40.2169 28.157C42.5724 27.0137 45.3992 26.3949 48.7756 26.3949V23.3949V20.3949C44.6614 20.3949 40.9091 21.1516 37.597 22.7592L38.907 25.4581ZM48.7756 23.3949V26.3949C52.3068 26.3949 55.2227 26.9861 57.604 28.066L58.843 25.3338L60.0821 22.6016C56.7626 21.0963 52.9668 20.3949 48.7756 20.3949V23.3949ZM58.843 25.3338L57.604 28.066C60.0095 29.1568 61.7537 30.6217 62.9646 32.4251L65.4553 30.7528L67.9459 29.0805C66.0413 26.2438 63.3774 24.096 60.0821 22.6016L58.843 25.3338ZM65.4553 30.7528L62.9785 32.4456C64.1803 34.204 64.8168 36.2781 64.8168 38.782H67.8168H70.8168C70.8168 35.1873 69.8789 31.9086 67.9321 29.0601L65.4553 30.7528ZM67.8168 38.782H64.8168C64.8168 40.308 64.5123 41.846 63.8714 43.414L66.6484 44.549L69.4255 45.684C70.3424 43.4405 70.8168 41.1337 70.8168 38.782H67.8168ZM66.6484 44.549L63.8714 43.414C63.2641 44.9 62.0915 46.7206 60.1927 48.884L62.4474 50.8629L64.7022 52.8419C66.847 50.3982 68.475 48.0096 69.4255 45.684L66.6484 44.549ZM62.4474 50.8629L60.1847 48.8932C58.3079 51.0491 55.5726 53.706 51.9273 56.8772L53.8963 59.1406L55.8653 61.404C59.6112 58.1453 62.5765 55.2837 64.7102 52.8327L62.4474 50.8629ZM53.8963 59.1406L51.8622 56.9355L45.772 62.5534L47.8061 64.7585L49.8402 66.9636L55.9304 61.3457L53.8963 59.1406ZM47.8061 64.7585H44.8061V65.0817H47.8061H50.8061V64.7585H47.8061ZM47.8061 65.0817V68.0817H68.4382V65.0817V62.0817H47.8061V65.0817ZM68.4382 65.0817H65.4382V75H68.4382H71.4382V65.0817H68.4382ZM68.4382 75V72H30.7536V75V78H68.4382V75Z" fill="black" mask="url(#path-2-outside-1_2_4)"/>
</svg>
